<svg xmlns="http://www.w3.org/2000/svg" version="1.1" xmlns:xlink="http://www.w3.org/1999/xlink" xmlns:svgjs="http://svgjs.dev/svgjs" viewBox="0 0 6.3103737269179145 4.767921724972772"><g transform="matrix(1,0,0,1,3.1568956388008673,4.499220258192167)"><g><path d=" M -2.6224623530167777 -1.214871940878885 Q -2.5876239554281617 -1.3028423111944492 -2.5131853760921383 -1.3565442469736606 Q -2.438746796756115 -1.4102461827528723 -2.3363987414367706 -1.421816643951476 Q -2.2350443565574194 -1.4332747705753355 -2.1504394982070894 -1.397049531535123 Q -2.065834639856759 -1.3608242924949105 -2.0112426978459474 -1.282964033906281 Q -1.9566507558351363 -1.205103775317652 -1.9442939526133267 -1.0958000269183519 L -1.9129526062598279 -0.8185659741601273 L -2.6134902664553414 -0.7393700989658024 L -2.64483161280884 -1.016604151724027 Q -2.6573007506053936 -1.1269015705633207 -2.6224623530167777 -1.214871940878885 M -2.1763815983811736 -1.1903268732739691 Q -2.2285885032233166 -1.2337369998207022 -2.3140441610627693 -1.224076226392742 Q -2.400493489342216 -1.2143031183900381 -2.4421884410794714 -1.1602773745300232 Q -2.4838833928167263 -1.106251630670008 -2.474222619388766 -1.0207959728305553 L -2.466583868306193 -0.953226382910988 L -2.1068751690284966 -0.9938914989682159 L -2.1145139201110696 -1.0614610888877831 Q -2.12417469353903 -1.1469167467272359 -2.1763815983811736 -1.1903268732739691 M -2.616449945383385 -1.865890524081036 L -1.9202919779601153 -1.754584260137348 L -1.951236698148715 -1.561042470612581 L -2.647394665571985 -1.6723487345562686 L -2.616449945383385 -1.865890524081036 M -1.6375887241128988 -2.474304705577928 L -1.720597407933424 -2.2967503240200964 L -2.1880550243157852 -2.2271775068705706 L -1.8311344817964708 -2.0603131118435964 L -1.914143165616996 -1.8827587302857647 L -2.5527954054040944 -2.1813358838238788 L -2.469786721583569 -2.3588902653817105 L -1.9977996566920797 -2.426345514066427 L -2.3592496477205227 -2.595327477558211 L -2.276240963899997 -2.7728818591160422 L -1.6375887241128988 -2.474304705577928 M -1.0776184841408014 -3.018127656394571 L -1.2226050521612155 -2.8862379483288474 L -1.6807991298715381 -3.0020618972823643 L -1.4156739003924814 -2.7106093064658174 L -1.5606604684128957 -2.578719598400094 L -2.0350596734452178 -3.1002274068408693 L -1.8900731054248037 -3.2321171149065933 L -1.4285144943454575 -3.1125945290137795 L -1.6970042571935378 -3.407745756769623 L -1.5520176891731234 -3.5396354648353467 L -1.0776184841408014 -3.018127656394571 M -0.992776276882834 -3.6519319570727857 L -0.9481898100984453 -3.5459270186044076 L -0.7407888435298797 -3.6331614101390812 L -0.6830202909135847 -3.495815881167009 L -0.8904212574821503 -3.4085814896323354 L -0.8411822898159123 -3.2915151662803006 L -0.6061278610382046 -3.3903808100195976 L -0.5452576411673434 -3.2456610244584208 L -0.9609813563781127 -3.0708045329822524 L -1.2343157831867568 -3.720660894897091 L -0.8185920679759875 -3.8955173863732595 L -0.7577218481051263 -3.7507976008120822 L -0.992776276882834 -3.6519319570727857 M -0.08361338715556083 -3.308607137101964 L -0.24510325873304295 -3.555833797027402 L -0.2660280039811013 -3.5540575548412523 L -0.2440364340573417 -3.2949892803414818 L -0.43933405637255324 -3.278411019937417 L -0.4989650440504399 -3.9808846104079483 L -0.1910723639718666 -4.007020745432724 Q -0.10637696653924938 -4.014210297138568 -0.04509319919987492 -3.989806406860717 Q 0.016190568139499484 -3.9654025165828655 0.05043908385514084 -3.9166245587404602 Q 0.08468759957078209 -3.867846600898055 0.09010090909047674 -3.804075948713496 Q 0.09619088230013328 -3.7323339650058673 0.06144220429284086 -3.674688242035767 Q 0.02669352628554844 -3.6170425190656674 -0.047088715074974974 -3.587696635882204 L 0.13460181328847654 -3.327130805614669 L -0.08361338715556083 -3.308607137101964 M -0.2773621207879621 -3.6875773578526725 L -0.18070972607074004 -3.6957819050934595 Q -0.14085306845539075 -3.699165223543269 -0.12253181591137546 -3.7197887951354645 Q -0.10421056336736018 -3.74041236672766 -0.10725554997218839 -3.776283358581474 Q -0.11013137065452622 -3.810161517554521 -0.1322072754266747 -3.8278576874364765 Q -0.15428318019882314 -3.845553857318432 -0.1931434213737887 -3.8422551218298686 L -0.2897958160910108 -3.834050574589081 L -0.2773621207879621 -3.6875773578526725 M 0.3079494169620227 -3.3455042543170723 Q 0.24566113134217446 -3.421553050984345 0.26650889579335835 -3.5287088754522102 L 0.4691583663464048 -3.47757970486858 Q 0.4630156347677675 -3.4409700497383713 0.4772794818519118 -3.4198384935637742 Q 0.4915433289360562 -3.398706937389177 0.5206317696852973 -3.3913678219943977 Q 0.5468113663596144 -3.384762618139096 0.5670822253909891 -3.3935712658293 Q 0.5873530844223638 -3.402379913519504 0.5932243767381875 -3.4256506661188966 Q 0.6008081293127929 -3.455708721559779 0.5768481353122348 -3.4792866495326358 Q 0.5528881413116769 -3.502864577505493 0.49500056713133334 -3.5391279027186506 Q 0.43372380854407644 -3.5783090060343947 0.39777488351557677 -3.6095528020472885 Q 0.3618259584870772 -3.640796598060182 0.3414355386631523 -3.688741678927818 Q 0.32104511883922743 -3.736686759795453 0.33743580988756827 -3.801650944135425 Q 0.3540711381157351 -3.867584743167038 0.3989029408531019 -3.906293391597561 Q 0.44373474359046866 -3.945002040028084 0.5080275545846005 -3.9545641765295594 Q 0.5723203655787323 -3.9641263130310347 0.6460110821434764 -3.94553388736426 Q 0.7652736892153651 -3.915443514245664 0.8224737312110117 -3.8417098367590756 Q 0.8796737732066584 -3.7679761592724867 0.8590795799629629 -3.6659130454426547 L 0.6525516506433511 -3.7180207647455887 Q 0.6594104257061412 -3.749293072057939 0.6453867487879916 -3.769332694950981 Q 0.631363071869842 -3.7893723178440237 0.6032442458122422 -3.7964667960589775 Q 0.581912722596132 -3.801848814015149 0.565157833575415 -3.792668743541375 Q 0.5484029445546981 -3.783488673067601 0.5425316522388746 -3.7602179204682082 Q 0.5376389086423549 -3.7408256266353805 0.5491206972553193 -3.722974337319278 Q 0.5606024858682839 -3.7051230480031756 0.5803349333878626 -3.6893154386049436 Q 0.6000673809074413 -3.6735078292067116 0.6397858471540872 -3.6469853210482803 Q 0.6991233763580613 -3.608293492092188 0.7357972788983764 -3.5758354442078266 Q 0.7724711814386915 -3.5433773963234656 0.7931062384424423 -3.4964019301474716 Q 0.8137412954461931 -3.449426463971478 0.7985737902969823 -3.389310353089713 Q 0.7831616479679453 -3.3282246275163065 0.740386926189943 -3.2874499640987564 Q 0.6976122044119406 -3.2466753006812064 0.6328256520443256 -3.2331123868232527 Q 0.5680390996767106 -3.2195494729652987 0.48950030965375957 -3.2393650845312036 Q 0.37023770258187094 -3.269455457649799 0.3079494169620227 -3.3455042543170723 M 1.391431557969022 -3.447180639667499 Q 1.477418148542657 -3.4809564629960588 1.567811338474122 -3.463655560880444 Q 1.658204528405587 -3.4463546587648293 1.7373289310405389 -3.378861482015901 Q 1.837756057461824 -3.293197065373031 1.860476512042076 -3.1811522933233425 Q 1.8831969666223283 -3.069107521273654 1.824452352025102 -2.9601760278669103 L 1.6639211120638056 -3.0971092999248317 Q 1.675424606485854 -3.1398722466904827 1.6635658490190905 -3.177589880117628 Q 1.651707091552327 -3.2153075135447726 1.6182313827452321 -3.243862319092396 Q 1.5664961964069946 -3.2879924731205414 1.50420814468547 -3.277376512837238 Q 1.4419200929639453 -3.266760552553934 1.389353291842184 -3.2051348158863275 Q 1.3361375178670678 -3.142748267654923 1.3354752028131498 -3.079565506249858 Q 1.3348128877592318 -3.016382744844793 1.3865480740974696 -2.972252590816648 Q 1.4200237829045645 -2.9436977852690247 1.4591394002122413 -2.9379342375213793 Q 1.4982550175199179 -2.9321706897737343 1.5386693513662757 -2.9502726681118925 L 1.699200591327572 -2.813339396053971 Q 1.6008937754128698 -2.738154491021692 1.4866681485095516 -2.742924832575917 Q 1.3724425216062335 -2.747695174130142 1.2720153951849487 -2.8333595907730125 Q 1.1928909925499969 -2.9008527675219407 1.1615543322738437 -2.987387521943138 Q 1.1302176719976906 -3.0739222763643355 1.1500136565209333 -3.164158737934787 Q 1.1698096410441758 -3.2543951995052383 1.237951790646459 -3.3342804137039876 Q 1.305444967395387 -3.4134048163389394 1.391431557969022 -3.447180639667499 M 1.8124402239116058 -2.429361469777653 L 1.9252032170858384 -2.241623601007423 L 1.7966156357363663 -2.1643886741757568 L 1.5829323381687563 -2.5201476492426305 L 2.187293970511276 -2.8831518053514618 L 2.2882142749046537 -2.715130699054818 L 1.8124402239116058 -2.429361469777653 M 2.5712879013565137 -2.0584023800847264 L 2.172961210738292 -1.965575403719364 Q 2.117448689062892 -1.9526386368420396 2.0932721302964308 -1.9197943982877388 Q 2.069095571529969 -1.8869501597334377 2.081351455940066 -1.834359349725164 Q 2.0936073403501627 -1.7817685397168903 2.130526735471242 -1.762135448674122 Q 2.1674461305923214 -1.7425023576313539 2.221984748378679 -1.755212163686269 L 2.620311438996901 -1.8480391400516314 L 2.664795760189104 -1.6571539777993785 L 2.2664690695708822 -1.564327001434016 Q 2.172000392333798 -1.5423118016603237 2.0959825822156364 -1.56669504477602 Q 2.0199647720974747 -1.5910782878917162 1.9703643499456738 -1.6519083636960674 Q 1.9207639277938726 -1.7127384395004186 1.9012452970666813 -1.7964941739580398 Q 1.8817266663394903 -1.880249908415661 1.900006494998822 -1.9538185692991206 Q 1.9182863236581538 -2.02738723018258 1.9757737964502629 -2.080315865834527 Q 2.033261269242372 -2.133244501486473 2.1287038503684985 -2.155486662082575 L 2.52703054098672 -2.248313638447937 L 2.5712879013565137 -2.0584023800847264 M 2.207526400737331 -0.7909557867151469 Q 2.1557290304652827 -0.7608637207691149 2.0952349897262272 -0.7687040673852742 Q 2.0059814869964736 -0.780271791900919 1.9633733790048353 -0.8483125821180592 Q 1.9207652710131968 -0.9163533723351993 1.9351606615215549 -1.0274243979544484 L 1.9800177265877776 -1.3735296474287155 L 2.679170164637515 -1.2829158053894976 L 2.635726932567649 -0.947719317359978 Q 2.621845663148875 -0.8406151140842737 2.5663391832739824 -0.7857946736272858 Q 2.51083270339909 -0.7309742331702981 2.4245543174269946 -0.7421563668687547 Q 2.363068571102053 -0.75012524375731 2.3260900231406496 -0.7876896816030463 Q 2.289111475179246 -0.8252541194487825 2.2811765261003405 -0.8807341751725755 Q 2.259323771009379 -0.8210478526611787 2.207526400737331 -0.7909557867151469 M 2.3763006671997657 -1.1245299868267067 L 2.363576170232556 -1.0263511338239777 Q 2.3540649300752485 -0.9529649204684024 2.4145589708143036 -0.9451245738522431 Q 2.4770364227251314 -0.9370271666912917 2.4865476628824394 -1.010413380046867 L 2.4992721598496486 -1.108592233049596 L 2.3763006671997657 -1.1245299868267067 M 2.1488373308826465 -0.9644380425213012 Q 2.1805719096310034 -0.9603250738046274 2.1999372449027907 -0.9774783180986746 Q 2.2193025801745785 -0.9946315623927215 2.2239296699808366 -1.030332963484623 L 2.2384535907615906 -1.1423956946897582 L 2.1115152757681632 -1.158847569556453 L 2.096862824715013 -1.0457931327654317 Q 2.087351584557705 -0.9724069194098566 2.1488373308826465 -0.9644380425213012" fill="#574848" fill-rule="nonzero"></path></g><g clip-path="url(#SvgjsClipPath1001)"><g clip-path="url(#bdbaee58a-873d-4cd0-9ae6-b619b832a6de5c79e606-80bd-4085-b4d4-91fa0def3f75)"><path d=" M 0.32769702874051765 -1.0770724172588546 C 0.32769702874051765 -1.0770724172588546 0.8793046182279958 -0.9667583808151698 0.917553550836903 -0.6758981602767264 C 0.9441501191351263 -0.43731459824287766 0.5644476345906635 -0.23353850006486088 0.069287614107431 -0.22068910314441137 C -0.4257601845686363 -0.20783970622396186 -0.8486867685063433 -0.3908547700763618 -0.8752833368045662 -0.6294383321102106 C -0.8963810365516799 -0.8184946699150195 -0.612946158920687 -1.0131995053471585 -0.32876313590859074 -1.0862559018118978 C -0.7047810044511196 -1.0126945072149138 -0.9656967061109026 -0.8336259102478343 -0.9427099392765032 -0.6276801904646174 C -0.9140372675457183 -0.3711785465533439 -0.45935191218017524 -0.17439760768864332 0.0729348228403095 -0.1881821863354718 C 0.6052589651298494 -0.20200417225135592 1.0135218995979312 -0.42109854710746353 0.9849053387707292 -0.677637598287792 C 0.963470973602119 -0.8700231830385106 0.6805785013724264 -1.0192407792995681 0.325265556251932 -1.078718337097282" fill="#b9625d" transform="matrix(1,0,0,1,0,0)" fill-rule="nonzero"></path></g><g clip-path="url(#bdbaee58a-873d-4cd0-9ae6-b619b832a6de5c79e606-80bd-4085-b4d4-91fa0def3f75)"><path d=" M 1.2944691938367563 -1.0335864669822241 C 1.2720248324036563 -1.0448460549678291 1.270210579854481 -1.058798966325406 1.2706781707176704 -1.074528722963103 C 1.2709026143320017 -1.0897721851030833 1.2813766496674481 -1.1060630507766083 1.2813766496674481 -1.1060630507766083 C 1.2813766496674481 -1.1060630507766083 1.2695185453769606 -1.070226887021759 1.2918132777338394 -1.0563861974713475 C 1.3142950464359942 -1.0422649534030224 1.3522260172579323 -1.0506815889404348 1.3502434319980088 -1.1043984273036533 C 1.3486162157941086 -1.15774119297632 1.30875877061583 -1.2124493239695004 1.2599609881333658 -1.2322377692996833 C 1.2108452438639326 -1.2520823255334488 1.1124828298833735 -1.2514276983249832 1.0504054668863256 -1.2293200023133801 C 0.999026582839055 -1.2112148840906798 0.7046874862784809 -1.0360927540089202 0.4912416090497036 -1.0354568304349825 C 0.4622135682628947 -1.041254957138533 0.4070565500410528 -1.0615858078700158 0.32769702874051787 -1.0789988916151956 C 0.4651126316146703 -1.0480443764720457 0.7515026835010215 -1.0994419641538438 0.842308829132437 -1.1531962097861173 C 0.8726087170671213 -1.1724609533495278 0.932329422113694 -1.2145628346711173 0.9761146305427655 -1.2783609320447027 C 1.0374251445241827 -1.367745601452022 1.0389588425554446 -1.4358268311324243 1.0197876171646723 -1.4880286750989085 C 1.0009343535608686 -1.5403240372380305 0.9214064995495854 -1.5657609801955434 0.8727583461433421 -1.540473666314251 C 0.8238109345846572 -1.5161589414283934 0.7746577830461692 -1.473327618360228 0.7880121780988634 -1.426699457482964 C 0.7966719608851345 -1.3976714166961548 0.8021895330707713 -1.3871973813607084 0.8052943364023499 -1.38300776722653 C 0.794090859320328 -1.3948658715170175 0.7502308363531456 -1.4480590081134634 0.7962978881945828 -1.5248374278491919 C 0.8483313994503185 -1.6120898829203665 0.9644809698666093 -1.64100570190001 1.041670869561944 -1.5446258731793745 C 1.118842065622752 -1.448582709880236 1.0491523233729771 -1.319303188025582 0.9923119780436527 -1.2537843562754587 C 0.9746139210597655 -1.2343620079171582 0.955455327360696 -1.216322666265129 0.9350040418511378 -1.1998243706633813 C 0.9504532439709217 -1.2079978589519356 0.9671555896040536 -1.2157224600118273 0.9852420041922265 -1.2238398373967985 C 1.0376682917730413 -1.253017507259828 1.111772091771325 -1.2959610521351586 1.1341042313972594 -1.3209117005949542 C 1.1705576150915191 -1.3601145185647683 1.1704640969188809 -1.4067613830765602 1.2261261132729682 -1.468090600692505 C 1.281339242398393 -1.5298687055371119 1.3965910383573594 -1.5764033482417381 1.4812997991327825 -1.5719518832241735 C 1.5652604145271027 -1.5676500472828292 1.597281036838325 -1.4986336358760481 1.5704787285602984 -1.4489380789362598 C 1.5438447529930204 -1.3989432638440304 1.4831140516819583 -1.4100158154843596 1.476081485099587 -1.4434766176542058 C 1.469441694842295 -1.4770122343621621 1.5067928529938786 -1.4898803349171392 1.5236822349722856 -1.4722054002885732 C 1.5404593951435275 -1.4543060220456763 1.5248979712165789 -1.4396236689415236 1.5248979712165789 -1.4396236689415236 C 1.5248979712165789 -1.4396236689415236 1.5428160530940032 -1.4407084797441234 1.5588263642496147 -1.469025782418884 C 1.575023711750501 -1.4975862323425033 1.5683278105896266 -1.5321505489494767 1.532024055971588 -1.5496758545018219 C 1.4954771541046905 -1.56779967635905 1.412750978589191 -1.5629367313818783 1.3557235969145904 -1.535330166819166 C 1.2983034389149104 -1.5079293422362567 1.2697616926258188 -1.4753663145237348 1.2364879268012485 -1.4156830167462173 C 1.2033263827838443 -1.3565982352735826 1.1801151723351135 -1.3286737089239011 1.119365767389524 -1.2900319999899148 C 1.0974077004541418 -1.2756114977691482 1.0648259691070918 -1.2581797103894408 1.0328427540649248 -1.242506064655326 C 1.0660042980823294 -1.253597319930183 1.0999326911153653 -1.2618643263913747 1.1330942351327695 -1.2640526516311017 C 1.272137054210822 -1.272749841686428 1.3546387861119906 -1.2355483126110656 1.3852192285645888 -1.1737889114009863 C 1.4153694874230522 -1.1127402483029554 1.4000886180140175 -1.0649711657195082 1.367712626646771 -1.0447151295261359 C 1.3352057098378318 -1.023542615240912 1.316707815290052 -1.0231498389158327 1.2944691938367563 -1.0335864669822241 M 1.1900842095383153 -1.5162898668700864 C 1.1915243893969394 -1.5153733887782348 1.191973276625601 -1.514288577975635 1.191973276625601 -1.514288577975635 C 1.191898462087491 -1.5142511707065798 1.1915243893969394 -1.5153733887782348 1.1900842095383153 -1.5162898668700864 M 1.1086111775361638 -1.5642459857988094 C 1.0831742345786508 -1.5853436855459226 1.0409788350844233 -1.6414171818596166 1.0315709069170493 -1.7077963807980088 C 1.0228550132271956 -1.7736892852386836 1.0322816450290975 -1.829650559745212 1.0689594723376876 -1.8768398296583038 C 1.1054689669355295 -1.9244592831655303 1.1267911102969745 -1.9423960686774824 1.1434747522955786 -1.9631009920995166 C 1.160850428771703 -1.9838433227906063 1.1814805376556268 -2.018875230260769 1.1814805376556268 -2.018875230260769 C 1.1814805376556268 -2.018875230260769 1.1682196607755708 -1.9660561663548748 1.1788620288217655 -1.9200265217824928 C 1.188213846085557 -1.8749881698400732 1.21357597450496 -1.8118259960404255 1.2156894852065765 -1.7617376627755579 C 1.2187194740000447 -1.711050813205808 1.2072167387655814 -1.6780576018991518 1.188999398735716 -1.645831239608126 C 1.1713431677416772 -1.6138854318350142 1.159915247045324 -1.5927129175497903 1.1619539432088306 -1.5687161544509012 C 1.1628891249352096 -1.558765820882227 1.1636372703163134 -1.5526684360262348 1.1642544902557233 -1.5488903018516633 C 1.1782261052478278 -1.5525562142190696 1.1991928795532485 -1.5600376680301027 1.2302596165035635 -1.5738970612150416 C 1.2922060540589189 -1.6021582529862197 1.3351495989342488 -1.6334120262818108 1.3783175874239109 -1.686249793822233 C 1.4186239198308521 -1.734860539959421 1.4527019419401084 -1.8175867154749208 1.457602294186335 -1.8303238905882049 C 1.458387846836494 -1.8312590723145838 1.4587058086234626 -1.8323999940207665 1.4587058086234626 -1.8323999940207665 C 1.4587058086234626 -1.8323999940207665 1.4584065504710213 -1.8317827740813564 1.457602294186335 -1.8303238905882049 C 1.4557880416371596 -1.8262090909921367 1.4487554750547882 -1.8114893306189288 1.4245342683415685 -1.7745122451578972 C 1.3932804950459774 -1.7253965008884642 1.3642337506246407 -1.6911127387994043 1.3086652524431917 -1.6408560728237889 C 1.2535456414904043 -1.5914410704019146 1.180059061431531 -1.5732798412756317 1.1789555469944033 -1.5729618794886626 C 1.1795727669338136 -1.5731489158339385 1.1831264574940543 -1.5750379829212244 1.2004273194320687 -1.5897951505634875 C 1.2201783574931966 -1.607619714268274 1.2269303695576537 -1.6325329554590144 1.236431815897666 -1.6710437389513078 C 1.2461577058520095 -1.7101904460175392 1.262317646083841 -1.7445303190101815 1.3019880549168446 -1.7823864752940095 C 1.3416958710189038 -1.8203735570195305 1.4086735862621782 -1.85179566302587 1.4502143585479401 -1.8797575966446067 C 1.492503276214805 -1.90859860108614 1.522036315133859 -1.9601084105751032 1.522036315133859 -1.9601084105751032 C 1.522036315133859 -1.9601084105751032 1.5111133925697504 -1.9167159784711107 1.510103396305261 -1.8880433067403262 C 1.508064700141754 -1.858753415070131 1.510627098072033 -1.8289211179986362 1.5041556405254894 -1.7643187643403644 C 1.4979273302278044 -1.6994171525296515 1.4641111590019342 -1.6488051174980116 1.4072708136726093 -1.6029625092709057 C 1.350598801054033 -1.5576997137141548 1.2751296357352353 -1.544233096854295 1.2392934719803863 -1.5470573456679602 C 1.2141534820067537 -1.548179769307568 1.188982794772329 -1.548454245203061 1.1638243066615859 -1.5478803055871737 C 1.1639365284687546 -1.5458416094236673 1.1337301587067081 -1.5992591896344444 1.1304944299334356 -1.6409682946309545 C 1.1262861121647298 -1.697284938193507 1.1278385138305196 -1.7310637021503217 1.1359184839464351 -1.7737828034113214 C 1.1424834596656166 -1.8066824965453399 1.1460371502258573 -1.8181665281452757 1.147346404642788 -1.8219820695889029 C 1.1475708482571187 -1.822374845913982 1.1476456627952296 -1.8232165094677233 1.1476456627952296 -1.8232165094677233 C 1.1476456627952296 -1.8232165094677233 1.1473277010082605 -1.823141694929613 1.147346404642788 -1.8219820695889029 C 1.14330641958483 -1.8120504396547563 1.119253545582359 -1.7495241894290463 1.1159804095400312 -1.7021104759016232 C 1.1120713499237667 -1.6505071482400218 1.1191600274097206 -1.611790624767925 1.1387427327600999 -1.5640215421844779 C 1.141379945228489 -1.5572695301200203 1.160326727004931 -1.5174681958453238 1.1650961538094644 -1.5112398855476386 C 1.1658630028250956 -1.5167761613678032 1.1661248537084816 -1.5192263374909167 1.1661248537084816 -1.5192263374909167 L 1.1763931490641246 -1.5409038499083854 C 1.1763931490641246 -1.5409038499083854 1.1895792114060706 -1.53854719195791 1.1787685106491277 -1.484942575401857 C 1.1682944753136808 -1.4317120315363556 1.1439423431587676 -1.383980356221964 1.112370608076208 -1.3485930796957768 C 1.0802003566887652 -1.3126446941337622 1.0415025368511959 -1.2837101715195913 1.0415025368511959 -1.2837101715195913 C 1.0415025368511959 -1.2837101715195913 1.112370608076208 -1.3506130722247558 1.1364795929822624 -1.4095856318902251 C 1.154566007570435 -1.4527536203798865 1.1619165359397754 -1.4920125492532834 1.1651335610785196 -1.5098558165925975 C 1.1525834223105114 -1.5228922498583228 1.1272774047946914 -1.5491521527350494 1.1086111775361638 -1.564245985798809 M 1.2478410329594918 -1.9997414121390518 C 1.2800673952505175 -2.0583773063830244 1.320280209484821 -2.0977110497945315 1.3782240692512726 -2.1141702481788047 C 1.4364858908046938 -2.1306668538321327 1.463942826291186 -2.133079622686191 1.4901279146298019 -2.1396820056744277 C 1.51606985571956 -2.145554946916089 1.553776382927167 -2.1617709980515034 1.553776382927167 -2.1617709980515034 C 1.553776382927167 -2.1617709980515034 1.5109637634935296 -2.1266081651396473 1.4925406834838602 -2.084188322031089 C 1.4734442726311978 -2.0417684789225308 1.4558628561752696 -1.976586312593904 1.427788700749368 -1.9342038767544008 C 1.3999950998413793 -1.892401253585253 1.371397242648705 -1.8726128082550701 1.3382169949967726 -1.8572384206733967 C 1.3039145292731855 -1.8422381057822754 1.282311831393827 -1.8321942540409633 1.2696494708186532 -1.8111339615629047 C 1.2603911717275 -1.795722166712176 1.2582028464877726 -1.791158479887446 1.2579409956043865 -1.7897183000288222 C 1.25807192104608 -1.7950301322346558 1.2631031987339991 -1.8611474802896617 1.298415660722076 -1.917277087506938 C 1.334925155319918 -1.9753144654460284 1.3611850581966447 -2.007391198660833 1.4003130616283483 -2.0435266205681235 C 1.4314546131167742 -2.07264817952757 1.4427703120059618 -2.080971296892345 1.4464736316424234 -2.0834214730154583 C 1.436729038053553 -2.0766133500474178 1.3665530013060612 -2.0324166616587394 1.328079625082823 -1.9878271969449814 C 1.2869690363911954 -1.9401516325341723 1.2657965221059713 -1.8961045732217143 1.2505530599659909 -1.835523500986873 C 1.2385640302338108 -1.7876983074998432 1.237198664913297 -1.7640569134569781 1.237815884852707 -1.7551726870563762 C 1.2304092455797844 -1.82695723637324 1.2421364244285789 -1.769948558333167 1.2242183425511546 -1.8390958951816412 C 1.2159326324554351 -1.8715092938179425 1.2154650415922457 -1.9417040341999616 1.2478410329594918 -1.9997414121390518 M 1.2579222919698587 -1.7892133018965775 C 1.257882065606445 -1.7893801614112341 1.257888536417596 -1.789554873312321 1.2579409956043865 -1.7897183000288224 L 1.2579222919698587 -1.7892133018965775" fill="#b9625d" transform="matrix(1,0,0,1,0,0)" fill-rule="nonzero"></path></g><g clip-path="url(#bdbaee58a-873d-4cd0-9ae6-b619b832a6de5c79e606-80bd-4085-b4d4-91fa0def3f75)"><path d=" M -1.2944691938367563 -1.0405068117574297 C -1.2720248324036567 -1.0517663997430349 -1.2702105798544814 -1.0657193111006118 -1.2706781707176709 -1.0814490677383088 C -1.2709026143320017 -1.096692529878289 -1.2813766496674484 -1.112983395551814 -1.2813766496674484 -1.112983395551814 C -1.2813766496674484 -1.112983395551814 -1.2695185453769606 -1.0771472317969648 -1.2918132777338396 -1.0633065422465533 C -1.3142950464359944 -1.0491852981782281 -1.3522260172579328 -1.0576019337156406 -1.350243431998009 -1.111318772078859 C -1.3486162157941093 -1.1646615377515257 -1.30875877061583 -1.2193696687447062 -1.2599609881333658 -1.239158114074889 C -1.2108452438639328 -1.2590026703086545 -1.1124828298833735 -1.258348043100189 -1.0504054668863256 -1.2362403470885859 C -0.9990265828390552 -1.2181352288658855 -0.7046874862784813 -1.043013098784126 -0.49124160904970404 -1.0423771752101882 C -0.46221356826289517 -1.0481753019137388 -0.407056550041053 -1.0685061526452215 -0.3276970287405183 -1.0859192363904013 C -0.46511263161467076 -1.0549647212472513 -0.7515026835010216 -1.1063623089290495 -0.8423088291324372 -1.160116554561323 C -0.8726087170671216 -1.1793812981247336 -0.9323294221136942 -1.221483179446323 -0.976114630542766 -1.2852812768199084 C -1.037425144524183 -1.3746659462272277 -1.038958842555445 -1.4427471759076298 -1.0197876171646723 -1.4949490198741142 C -1.0009343535608686 -1.5472443820132362 -0.9214064995495858 -1.5726813249707492 -0.8727583461433422 -1.5473940110894568 C -0.8238109345846575 -1.5230792862035991 -0.7746577830461694 -1.4802479631354337 -0.7880121780988637 -1.4336198022581694 C -0.7966719608851346 -1.4045917614713606 -0.8021895330707716 -1.3941177261359141 -0.8052943364023505 -1.3899281120017355 C -0.7940908593203282 -1.4017862162922232 -0.750230836353146 -1.4549793528886692 -0.7962978881945828 -1.5317577726243974 C -0.8483313994503189 -1.6190102276955722 -0.9644809698666094 -1.6479260466752155 -1.0416708695619445 -1.5515462179545803 C -1.118842065622752 -1.4555030546554417 -1.0491523233729776 -1.3262235328007879 -0.9923119780436529 -1.2607047010506645 C -0.9746139210597659 -1.2412823526923638 -0.9554553273606959 -1.223243011040335 -0.9350040418511382 -1.206744715438587 C -0.950453243970922 -1.2149182037271413 -0.9671555896040538 -1.222642804787033 -0.9852420041922265 -1.2307601821720042 C -1.0376682917730418 -1.2599378520350337 -1.1117720917713256 -1.3028813969103643 -1.1341042313972596 -1.32783204537016 C -1.170557615091519 -1.367034863339974 -1.1704640969188809 -1.413681727851766 -1.2261261132729682 -1.4750109454677105 C -1.2813392423983931 -1.5367890503123174 -1.3965910383573596 -1.5833236930169439 -1.481299799132783 -1.578872227999379 C -1.5652604145271032 -1.574570392058035 -1.5972810368383252 -1.505553980651254 -1.5704787285602988 -1.4558584237114656 C -1.5438447529930206 -1.4058636086192362 -1.4831140516819585 -1.4169361602595654 -1.4760814850995874 -1.4503969624294115 C -1.4694416948422955 -1.4839325791373679 -1.5067928529938786 -1.496800679692345 -1.523682234972286 -1.479125745063779 C -1.5404593951435281 -1.461226366820882 -1.524897971216579 -1.4465440137167294 -1.524897971216579 -1.4465440137167294 C -1.524897971216579 -1.4465440137167294 -1.5428160530940036 -1.4476288245193292 -1.5588263642496145 -1.4759461271940897 C -1.5750237117505015 -1.504506577117709 -1.5683278105896268 -1.5390708937246824 -1.532024055971588 -1.5565961992770276 C -1.495477154104691 -1.5747200211342558 -1.4127509785891912 -1.569857076157084 -1.3557235969145907 -1.5422505115943714 C -1.2983034389149108 -1.5148496870114625 -1.2697616926258193 -1.4822866592989405 -1.236487926801249 -1.422603361521423 C -1.2033263827838443 -1.3635185800487883 -1.180115172335114 -1.3355940536991069 -1.119365767389524 -1.2969523447651203 C -1.0974077004541418 -1.282531842544354 -1.0648259691070923 -1.2651000551646465 -1.0328427540649252 -1.2494264094305318 C -1.0660042980823299 -1.2605176647053888 -1.0999326911153653 -1.2687846711665804 -1.13309423513277 -1.2709729964063075 C -1.2721370542108223 -1.2796701864616338 -1.3546387861119908 -1.2424686573862713 -1.385219228564589 -1.180709256176192 C -1.415369487423053 -1.1196605930781611 -1.4000886180140175 -1.071891510494714 -1.3677126266467714 -1.0516354743013416 C -1.3352057098378323 -1.0304629600161177 -1.3167078152900527 -1.0300701836910382 -1.2944691938367563 -1.0405068117574297 M -1.1900842095383157 -1.5232102116452921 C -1.1915243893969394 -1.5222937335534406 -1.1919732766256015 -1.5212089227508407 -1.1919732766256015 -1.5212089227508407 C -1.191898462087491 -1.5211715154817855 -1.1915243893969394 -1.5222937335534406 -1.1900842095383157 -1.5232102116452921 M -1.108611177536164 -1.5711663305740151 C -1.0831742345786513 -1.5922640303211284 -1.0409788350844238 -1.6483375266348224 -1.0315709069170498 -1.7147167255732145 C -1.022855013227196 -1.7806096300138894 -1.032281645029098 -1.8365709045204177 -1.068959472337688 -1.8837601744335095 C -1.10546896693553 -1.931379627940736 -1.1267911102969745 -1.9493164134526881 -1.1434747522955788 -1.9700213368747224 C -1.1608504287717034 -1.990763667565812 -1.1814805376556274 -2.025795575035975 -1.1814805376556274 -2.025795575035975 C -1.1814805376556274 -2.025795575035975 -1.168219660775571 -1.9729765111300805 -1.1788620288217657 -1.9269468665576985 C -1.1882138460855574 -1.881908514615279 -1.21357597450496 -1.818746340815631 -1.2156894852065767 -1.7686580075507636 C -1.218719474000045 -1.7179711579810135 -1.2072167387655817 -1.6849779466743575 -1.188999398735716 -1.6527515843833318 C -1.1713431677416775 -1.62080577661022 -1.1599152470453242 -1.599633262324996 -1.1619539432088308 -1.575636499226107 C -1.16288912493521 -1.5656861656574328 -1.1636372703163134 -1.5595887808014406 -1.1642544902557235 -1.555810646626869 C -1.178226105247828 -1.5594765589942754 -1.1991928795532485 -1.5669580128053084 -1.230259616503564 -1.5808174059902473 C -1.2922060540589189 -1.6090785977614253 -1.3351495989342494 -1.6403323710570166 -1.378317587423911 -1.6931701385974387 C -1.4186239198308523 -1.7417808847346268 -1.4527019419401086 -1.8245070602501265 -1.4576022941863354 -1.8372442353634106 C -1.458387846836494 -1.8381794170897896 -1.4587058086234628 -1.8393203387959722 -1.4587058086234628 -1.8393203387959722 C -1.4587058086234628 -1.8393203387959722 -1.4584065504710215 -1.8387031188565621 -1.4576022941863354 -1.8372442353634106 C -1.4557880416371598 -1.8331294357673422 -1.4487554750547886 -1.8184096753941346 -1.4245342683415687 -1.781432589933103 C -1.3932804950459774 -1.73231684566367 -1.3642337506246411 -1.69803308357461 -1.3086652524431919 -1.6477764175989946 C -1.2535456414904047 -1.5983614151771204 -1.1800590614315312 -1.5802001860508372 -1.1789555469944037 -1.5798822242638684 C -1.179572766933814 -1.5800692606091442 -1.1831264574940548 -1.5819583276964302 -1.2004273194320692 -1.5967154953386933 C -1.2201783574931966 -1.6145400590434797 -1.226930369557654 -1.6394533002342202 -1.2364318158976664 -1.6779640837265135 C -1.2461577058520095 -1.7171107907927448 -1.2623176460838412 -1.7514506637853873 -1.3019880549168448 -1.7893068200692153 C -1.3416958710189035 -1.8272939017947363 -1.4086735862621782 -1.8587160078010758 -1.4502143585479401 -1.8866779414198125 C -1.4925032762148054 -1.9155189458613457 -1.522036315133859 -1.967028755350309 -1.522036315133859 -1.967028755350309 C -1.522036315133859 -1.967028755350309 -1.5111133925697504 -1.9236363232463165 -1.510103396305261 -1.894963651515532 C -1.5080647001417544 -1.8656737598453368 -1.5106270980720333 -1.8358414627738417 -1.5041556405254894 -1.7712391091155701 C -1.4979273302278044 -1.7063374973048573 -1.4641111590019342 -1.6557254622732174 -1.4072708136726095 -1.6098828540461114 C -1.350598801054033 -1.5646200584893606 -1.2751296357352355 -1.5511534416295008 -1.2392934719803865 -1.553977690443166 C -1.2174476268521697 -1.5549689830731277 -1.1851651536575614 -1.5555113884744278 -1.1638243066615892 -1.5548006503623795 C -1.1639365284687546 -1.5527619541988729 -1.1337301587067081 -1.60617953440965 -1.130494429933436 -1.6478886394061603 C -1.12628611216473 -1.7042052829687127 -1.1278385138305194 -1.7379840469255274 -1.1359184839464351 -1.7807031481865272 C -1.142483459665617 -1.8136028413205456 -1.1460371502258577 -1.8250868729204814 -1.1473464046427884 -1.8289024143641086 C -1.1475708482571194 -1.8292951906891877 -1.1476456627952298 -1.830136854242929 -1.1476456627952298 -1.830136854242929 C -1.1476456627952298 -1.830136854242929 -1.147327701008261 -1.8300620397048188 -1.1473464046427884 -1.8289024143641086 C -1.1433064195848306 -1.8189707844299619 -1.119253545582359 -1.7564445342042518 -1.1159804095400319 -1.709030820676829 C -1.1120713499237669 -1.6574274930152275 -1.1191600274097209 -1.6187109695431308 -1.1387427327601003 -1.5709418869596836 C -1.1413799452284894 -1.564189874895226 -1.1603267270049311 -1.5243885406205295 -1.1650961538094649 -1.5181602303228443 C -1.1658630028250956 -1.523696506143009 -1.1661248537084818 -1.5261466822661225 -1.1661248537084818 -1.5261466822661225 L -1.1763931490641248 -1.5478241946835911 C -1.1763931490641248 -1.5478241946835911 -1.1895792114060708 -1.5454675367331157 -1.178768510649128 -1.4918629201770628 C -1.1682944753136815 -1.4386323763115614 -1.1439423431587683 -1.3909007009971697 -1.1123706080762084 -1.3555134244709826 C -1.0802003566887655 -1.319565038908968 -1.0415025368511963 -1.290630516294797 -1.0415025368511963 -1.290630516294797 C -1.0415025368511963 -1.290630516294797 -1.1123706080762084 -1.3575334169999613 -1.1364795929822626 -1.4165059766654309 C -1.1545660075704356 -1.4596739651550923 -1.1619165359397756 -1.4989328940284892 -1.1651335610785198 -1.5167761613678032 C -1.1525834223105118 -1.5298125946335286 -1.1272774047946919 -1.5560724975102551 -1.108611177536164 -1.5711663305740147 M -1.247841032959492 -2.0066617569142577 C -1.2800673952505175 -2.06529765115823 -1.320280209484821 -2.1046313945697372 -1.378224069251273 -2.1210905929540105 C -1.4364858908046942 -2.137587198607339 -1.463942826291186 -2.1399999674613968 -1.4901279146298023 -2.146602350449634 C -1.5160698557195598 -2.152475291691295 -1.5537763829271671 -2.168691342826709 -1.5537763829271671 -2.168691342826709 C -1.5537763829271671 -2.168691342826709 -1.5109637634935298 -2.133528509914853 -1.4925406834838604 -2.091108666806295 C -1.4734442726311983 -2.0486888236977365 -1.4558628561752702 -1.9835066573691098 -1.4277887007493681 -1.9411242215296065 C -1.3999950998413797 -1.8993215983604588 -1.3713972426487053 -1.879533153030276 -1.338216994996773 -1.8641587654486025 C -1.3039145292731857 -1.849158450557481 -1.2823118313938275 -1.839114598816169 -1.2696494708186536 -1.8180543063381105 C -1.2603911717275003 -1.8026425114873819 -1.258202846487773 -1.7980788246626518 -1.2579409956043868 -1.7966386448040277 C -1.2580719210460798 -1.8019504770098613 -1.2631031987339998 -1.8680678250648675 -1.2984156607220765 -1.9241974322821438 C -1.3349251553199184 -1.9822348102212342 -1.361185058196645 -2.0143115434360386 -1.4003130616283486 -2.0504469653433293 C -1.4314546131167742 -2.079568524302776 -1.442770312005962 -2.0878916416675506 -1.4464736316424236 -2.090341817790664 C -1.4367290380535527 -2.0835336948226235 -1.3665530013060614 -2.039337006433945 -1.328079625082823 -1.9947475417201872 C -1.2869690363911956 -1.947071977309378 -1.2657965221059717 -1.90302491799692 -1.2505530599659915 -1.8424438457620786 C -1.2385640302338108 -1.794618652275049 -1.2371986649132973 -1.7709772582321839 -1.2378158848527074 -1.762093031831582 C -1.2304092455797846 -1.8338775811484456 -1.242136424428579 -1.7768689031083729 -1.2242183425511546 -1.846016239956847 C -1.2159326324554354 -1.8784296385931483 -1.2154650415922457 -1.9486243789751674 -1.247841032959492 -2.0066617569142573 M -1.2579222919698592 -1.7961336466717832 C -1.2578820656064449 -1.79630050618644 -1.2578885364175962 -1.796475218087527 -1.2579409956043868 -1.7966386448040281 L -1.2579222919698592 -1.7961336466717832" fill="#b9625d" transform="matrix(1,0,0,1,0,0)" fill-rule="nonzero"></path></g><g clip-path="url(#bdbaee58a-873d-4cd0-9ae6-b619b832a6de5c79e606-80bd-4085-b4d4-91fa0def3f75)"><path d=" M 0.02460463122103529 -1.0391227428023886 C -0.03371330123596872 -1.0956638299792718 -0.09206864096202749 -1.152223620790683 -0.1503491661499763 -1.2087834116020941 C -0.1541999647101513 -1.212462656708897 -0.1578701825954556 -1.2163263724759095 -0.1613469032521948 -1.2203609613746678 C -0.18893476418038002 -1.2530175072598277 -0.22596796054499424 -1.260536368339916 -0.2661994784138253 -1.261172291913854 C -0.29320752667165517 -1.2616024755079884 -0.3205148330819263 -1.2617146973151538 -0.3470552904765667 -1.266110051429136 C -0.41695077270614433 -1.2776501939326546 -0.47323000899964174 -1.3150948702568757 -0.521485386080806 -1.3650148708109948 C -0.5774092533182791 -1.422902619673864 -0.6197355782541994 -1.4902170003386355 -0.6532337876931006 -1.563161174996209 C -0.6669061445327638 -1.5929934720677041 -0.6744437092473796 -1.6242659489978228 -0.6715072386265492 -1.6575584184569205 C -0.6667004045529603 -1.7117989585869116 -0.6298168372645666 -1.747653825976288 -0.5752770389821344 -1.7505341856935357 C -0.5377388444852753 -1.752535474587987 -0.5024637897662538 -1.742903102806282 -0.4684418785605804 -1.7285013042200432 C -0.3885586554932732 -1.6945729111870076 -0.3146792991093206 -1.651124368179432 -0.252396196132469 -1.5896268178527393 C -0.20002601945523657 -1.5379860829220826 -0.17135334772445154 -1.4754224254273174 -0.16448911385282883 -1.4023847325971057 C -0.16235689951668442 -1.3796972239151475 -0.16007505610431916 -1.356972307964134 -0.15620340375710962 -1.3345279465310347 C -0.1521260114300964 -1.3109800706608077 -0.13940753995134014 -1.2923325470368072 -0.12107797811430854 -1.2764344576883617 C -0.08123923657055676 -1.2418701410813884 -0.042504009463932624 -1.2061461991337048 -0.003188969686953147 -1.1709459589527935 C 0.0742814845262958 -1.1015180675864056 0.15182675327765494 -1.0321836943926552 0.2293533183944867 -0.9628306175643775 C 0.27848776629844707 -0.9189144836936125 0.32769702874051787 -0.875073164360958 0.37679406937542326 -0.831157030490193 C 0.42781758436666983 -0.7855575695119457 0.47878498845433315 -0.7399207012646429 0.5297710961765247 -0.6943399439209235 C 0.5764740715918997 -0.6525186171172477 0.6232892688144398 -0.6107908084862101 0.6698052078845387 -0.5688011489717859 C 0.6845997827958565 -0.5554467539190919 0.6942134509430344 -0.5390436664384015 0.6941386364049245 -0.5183761502854223 C 0.694063821866814 -0.48846903867581704 0.6727042712363143 -0.4672217098524829 0.6427597523576538 -0.4672217098524829 C 0.6217742744177057 -0.4672404134870103 0.6038374889057536 -0.47511464362312283 0.5888932849182149 -0.4896099603819999 C 0.551598237670214 -0.5258389004619282 0.5145089304020174 -0.5622922841561873 0.4772138831540169 -0.5985773351396984 C 0.43793625064609243 -0.6368823786521884 0.3984902854274197 -0.6750003858194025 0.359137838381385 -0.7132306147937819 C 0.2847347802306597 -0.7854453477047803 0.21035042571446216 -0.8576413769812505 0.13607829300542984 -0.9299870353339414 C 0.09885806029554 -0.966309493586508 0.06188097483450816 -1.0028563954534049 0.02477296393178352 -1.0392723718786092 C 0.024698149393673097 -1.039197557340499 0.024679445759145713 -1.0391601500714438 0.02460463122103529 -1.0391227428023886" fill="#b9625d" transform="matrix(1,0,0,1,0,0)" fill-rule="nonzero"></path></g><g clip-path="url(#bdbaee58a-873d-4cd0-9ae6-b619b832a6de5c79e606-80bd-4085-b4d4-91fa0def3f75)"><path d=" M 0.46945187482506956 -1.5069006423372395 C 0.4107224624084589 -1.4593747070026513 0.2934506739205134 -1.3642293181608363 0.2934506739205134 -1.3642293181608363 L 0.3211133493868088 -1.3300390742444146 C 0.3211133493868088 -1.3300390742444146 0.562726900214126 -1.5256416841338778 0.6800360959711265 -1.6203194821125029 C 0.6852357063697947 -1.624490392612154 0.7039393408973775 -1.6304194447573979 0.706389517020491 -1.629746113914405 C 0.7136465272171932 -1.627632603212788 0.7044817462986779 -1.598473636984286 0.6988145450368202 -1.5938164319869177 C 0.588818470380104 -1.5044317625795987 0.34763510314692114 -1.3090910035735217 0.34763510314692114 -1.3090910035735217 L 0.39420715312060306 -1.2888723746492043 C 0.4418640138968848 -1.327551490852246 0.5011358317147949 -1.376311866065655 0.5486991743184384 -1.415065796806807 C 0.6048661888047704 -1.46077747959222 0.6612015360018502 -1.5063582369359398 0.7176678086406234 -1.551658439761746 C 0.7259161114672876 -1.55827952638451 0.7574691429153204 -1.5705678142691322 0.7597135790586305 -1.5679867127043257 C 0.7627996787556812 -1.5644517257786124 0.7529054560905899 -1.537350159348145 0.7465462203512119 -1.5319635126042006 C 0.6928480856225208 -1.4865884952402844 0.638701063665168 -1.441755883277668 0.5848532998602569 -1.3965491986244998 C 0.5330816394879068 -1.3531380628859797 0.48168405180610874 -1.309352854456908 0.43006202050997944 -1.2658669041802773 C 0.4015576814899433 -1.2419262519849712 0.37318426791159975 -1.217854674347972 0.3442310416629013 -1.1945125384575483 C 0.32360093277897706 -1.1778476000934717 0.2996976878527262 -1.1733400241723242 0.2740924121844648 -1.1796805562771748 C 0.2586993209682642 -1.1834773940862742 0.243362340655646 -1.1877418227585632 0.22830591486094187 -1.192586064101207 C 0.19164679118687888 -1.2044067611226397 0.16218856680593596 -1.1924177313904587 0.13484385312660963 -1.1676354156414113 C 0.0958093678675438 -1.1321920282116416 0.05585840451662638 -1.097777340680889 0.015757812089488565 -1.0636058003989945 C -0.05901931875178845 -0.9999760357361573 -0.13426404045625495 -0.9367764546674542 -0.2092469112773352 -0.873371133618948 C -0.2560434048653477 -0.8337755393240547 -0.30282119481883285 -0.7940303159529409 -0.349598984772318 -0.7544160180235198 C -0.42402074655757094 -0.6914034733000929 -0.49838639743924085 -0.628334817673083 -0.5730326028388246 -0.565471902025876 C -0.5908758701781388 -0.5504528835002271 -0.6082889539233185 -0.5342368323648126 -0.6282644355987773 -0.5224909498814907 C -0.648819729944591 -0.5103709947076169 -0.6724050130838731 -0.509903403844427 -0.6924740129319696 -0.5256705677511795 C -0.7028001205880445 -0.533851221329847 -0.709418057766704 -0.5458281004110597 -0.7108485656478589 -0.5589241013083166 C -0.712279073529014 -0.5720201022055738 -0.7084028764326101 -0.5851432809781312 -0.7000863921846959 -0.5953603100009539 C -0.6867507007665292 -0.6119878410959754 -0.6696368751737909 -0.6260155669916627 -0.6527100859263282 -0.6393699620443569 C -0.5994421347917718 -0.6814718433659464 -0.5455008528142222 -0.7226385429611566 -0.49180271808553155 -0.7642167225159733 L -0.2605696844210226 -0.9434349485592739 C -0.21289412001021368 -0.9803372194821951 -0.1652746665029874 -1.0173517122122817 -0.11744947301595743 -1.054085650424455 C -0.049162503355751896 -1.1065306416397975 0.01940502082236728 -1.1586576710681717 0.08769199048257281 -1.211158773187097 C 0.09991511412695075 -1.2206872279013463 0.11170405121097504 -1.2307599353939962 0.12302315610517711 -1.241346439314616 C 0.1331605260191273 -1.2506982565784075 0.1377990273819676 -1.2633045062499983 0.13807958189988123 -1.276640197668165 C 0.13849106185948834 -1.2955308685410238 0.13828532187968468 -1.314589872124631 0.13639625479239914 -1.3333683211903244 C 0.1321692333891651 -1.3760687188167964 0.15029305524639303 -1.406723975807505 0.18424015191395626 -1.4307955534445043 C 0.20670321698158367 -1.4467684573310602 0.22772610219058698 -1.4647426501120675 0.24945972551163842 -1.48166943935953 C 0.30413044923576327 -1.524238911544309 0.35885728386347115 -1.5666774582873948 0.4135280075875962 -1.6092282268376463 C 0.46681466235668045 -1.6507128882198252 0.520063909856709 -1.6923284750436975 0.5733692682603206 -1.7337383218877662 C 0.5798594294413921 -1.738825710479269 0.6088126556900906 -1.749449374890936 0.6116930154073383 -1.7462697570212469 C 0.6152654096021068 -1.7423419937704545 0.6063624795669771 -1.716568385391445 0.6011254618992541 -1.7123226603536836 C 0.4905869818412385 -1.62250780735223 0.2693790962835141 -1.4430464340600713 0.2693790962835141 -1.4430464340600713 L 0.2801149825023468 -1.3958010532433966 C 0.2801149825023468 -1.3958010532433966 0.5166037374691062 -1.5871018271915154 0.6260199994554667 -1.6755326112379278 C 0.631350535295828 -1.679797039910217 0.6578909926904686 -1.6891114499049533 0.6630344921855538 -1.6821724014952202 C 0.6684398425640254 -1.6748779840294625 0.6534395276729037 -1.6555197222934144 0.6497362080364422 -1.6525084371344732 C 0.5897723557410113 -1.6037854691901194 0.5297149852729421 -1.5552121303219866 0.4696950220739282 -1.5066013841847983 Z" fill="#b9625d" transform="matrix(1,0,0,1,0,0)" fill-rule="nonzero"></path></g><g clip-path="url(#bdbaee58a-873d-4cd0-9ae6-b619b832a6de5c79e606-80bd-4085-b4d4-91fa0def3f75)"><path d=" M -0.4587720995098199 -2.1727500315191945 C -0.4366644034982168 -2.269522636564909 -0.40163249602805373 -2.4096876737146165 -0.37137001536242464 -2.5046086189421 C -0.2481691747292354 -2.5119030364078574 0.08034146211323279 -2.508068791329703 0.08976809391513485 -2.5083119385785615 C 0.12478129775077007 -2.5091536021323027 -0.3112191267217175 -2.4630117357527554 -0.3332707118297378 -2.458186198044639 C -0.36183116175335717 -2.367810236007358 -0.4034093413081741 -2.210811927782826 -0.41867150708268186 -2.129226673973509 C -0.46324226816191216 -1.8904560755943844 -0.33416848628706197 -1.7149224655530177 -0.09429437347080993 -1.672259475195601 C 0.03979198245743265 -1.64835623026935 0.16660262455444586 -1.6661994976086643 0.284229782098415 -1.7338318400604043 C 0.3898679099102038 -1.7946934668131593 0.4425747520089329 -1.8899136701930845 0.45142157114047965 -2.010870074682964 C 0.4598195030433643 -2.122942252772241 0.37456833686664104 -2.5194780083915287 0.38752995559425596 -2.488336456903103 C 0.44296752833401243 -2.3552039863357668 0.4870519949155252 -2.219247266954766 0.49956472641447824 -2.074481135711274 C 0.5089913582163801 -1.9657756118369611 0.5044089677571222 -1.8594828568167068 0.4209159432259919 -1.777579641220421 C 0.3798801690724747 -1.7375538633313932 0.3298666503457177 -1.706580644553716 0.2830140458541224 -1.672839287865956 C 0.24207178987324318 -1.6434371743885956 0.1991843559014954 -1.6170276424356484 0.158242099920616 -1.5876816398618705 C 0.11039820279905888 -1.5534539886763938 0.0855597761464284 -1.5054604624786159 0.07641369886244043 -1.447404380904998 C 0.04613251456228351 -1.2548691670780585 0.04059623874211904 -1.0612304388139917 0.05050916504173797 -0.8670118978795693 C 0.05215508488016507 -0.8337568356895266 0.055110259135523254 -0.800651402575705 0.05797191521824363 -0.7675272658273553 C 0.06232986206317048 -0.7162231963181953 0.08572810885717663 -0.6744205731490471 0.13480644585755464 -0.6583354474553258 C 0.19117920032368962 -0.6399497747147116 0.37359574787120686 -0.6189642967747635 0.37359574787120686 -0.6028791710810422 C 0.37350222969856883 -0.5879349670935032 0.20460840991449425 -0.5807901787039667 0.03085164515324834 -0.5803599951098324 C 0.026418883770211066 -0.580247773302667 0.022453713250363494 -0.5800420333228635 0.017721693714884745 -0.5800420333228635 C -0.16501281561960113 -0.5797988860740046 -0.35150675549413135 -0.586868859925431 -0.35160027366676916 -0.6025986165631285 C -0.35160027366676916 -0.618197447759133 -0.17962035418564337 -0.6384721875870332 -0.118197618397061 -0.6565024912716231 C -0.08327793273406336 -0.672437987889124 -0.03522829563270258 -0.715362829129927 -0.030047388868561953 -0.7866797875836009 C -0.014149299520116676 -1.00684026960778 -0.017852619156577987 -1.2257102008495566 -0.05045305413815515 -1.4442060594007813 C -0.06010412955438804 -1.5088645239626357 -0.08989901935682787 -1.5591773008418341 -0.1427928978008326 -1.595649388170621 C -0.1940221527718824 -1.6309244428896426 -0.24611177493120096 -1.6647593177500402 -0.2986128770501266 -1.6982575271889413 C -0.39192530970823825 -1.7578098995247657 -0.4670204023364841 -1.8326805485386806 -0.4736040816901932 -1.9491667843764673 C -0.4778123994588994 -2.023382806181917 -0.4752125942595653 -2.1006662240498897 -0.4587720995098199 -2.1727500315191945" fill="#b9625d" transform="matrix(1,0,0,1,0,0)" fill-rule="nonzero"></path></g><g clip-path="url(#bdbaee58a-873d-4cd0-9ae6-b619b832a6de5c79e606-80bd-4085-b4d4-91fa0def3f75)"><path d=" M -0.3742316714451448 -2.0696555980031572 C -0.3957782584209204 -1.9834879537345822 -0.32807110143106977 -1.691131442433932 0.007378583821131324 -1.6972849381935067 C 0.34280956543880503 -1.7034384339530817 0.44128420122652967 -1.9650274664558576 0.41667021818823047 -2.125055763473858 C 0.14586029386335597 -2.281997960794807 0.013532079580706347 -1.9004064091630584 -0.3742316714451448 -2.0696555980031572" fill="#b9625d" transform="matrix(1,0,0,1,0,0)" fill-rule="nonzero"></path></g></g></g><defs><clipPath id="SvgjsClipPath1001"><path d=" M -1.5797210193501097 -2.509104731497172 h 3.1594420387002193 v 2.321604731497172 h -3.1594420387002193 Z"></path></clipPath><clipPath id="bdbaee58a-873d-4cd0-9ae6-b619b832a6de5c79e606-80bd-4085-b4d4-91fa0def3f75"><path d=" M -1.6692526225004647 -2.5278198293908307 L 1.6692900297695203 -2.5278198293908307 L 1.6692900297695203 -0.16880522096489603 L -1.6692526225004647 -0.16880522096489603 Z"></path></clipPath></defs></svg>